# xmcd CD database file
#
# Track frame offsets:
#	150
#	24258
#	71501
#	94530
#	134305
#	152831
#
# Disc length: 2550 seconds
#
# Revision: 2
# Processed by: cddbd v1.4PL0 Copyright (c) Steve Scherf et al.
# Submitted via: CDex 1.50
#
DISCID=4109f406
DTITLE=Miles Davis - Six Faces Essentiels
DYEAR=2001
DGENRE=Jazz
TTITLE0=Blues For Pablo
TTITLE1=Basin Street Blues
TTITLE2=E.S.P.
TTITLE3=Pinocchio
TTITLE4=Red China Blues
TTITLE5=Orange
EXTD=YEAR: 2001
EXTT0=
EXTT1=
EXTT2=
EXTT3=
EXTT4=
EXTT5=
PLAYORDER=
